<?xml version="1.0" standalone="no"?>
<!DOCTYPE svg PUBLIC "-//W3C//DTD SVG 20010904//EN"
 "http://www.w3.org/TR/2001/REC-SVG-20010904/DTD/svg10.dtd">
<svg version="1.0" xmlns="http://www.w3.org/2000/svg"
 width="300.000000pt" height="300.000000pt" viewBox="0 0 300.000000 300.000000"
 preserveAspectRatio="xMidYMid meet">
<metadata>
ArticPolarDEV Logo
</metadata>
<g transform="translate(0.000000,300.000000) scale(0.100000,-0.100000)"
fill="#ffffff" stroke="none">
<path d="M0 1500 l0 -1500 1500 0 1500 0 0 1500 0 1500 -1500 0 -1500 0 0
-1500z m1670 765 c40 -58 75 -105 78 -105 3 0 18 12 33 26 l27 26 43 -59 c23
-32 66 -89 94 -128 54 -74 79 -114 48 -79 -10 12 -49 58 -87 103 -38 45 -71
81 -73 81 -4 0 11 -29 44 -85 21 -36 18 -34 -31 20 -31 33 -56 57 -56 54 0 -4
12 -33 26 -65 33 -74 44 -104 40 -104 -2 0 -48 70 -102 154 -54 85 -100 153
-102 151 -2 -1 15 -39 37 -84 23 -45 39 -81 36 -81 -2 0 -25 35 -50 77 -46 79
-61 93 -26 25 10 -20 26 -55 35 -77 l16 -40 -56 60 -55 60 22 -45 22 -44 -70
62 c-39 34 -76 68 -83 77 -11 13 -21 2 -67 -72 -64 -101 -79 -120 -63 -79 6
16 9 31 7 33 -3 2 -26 -20 -52 -49 -45 -49 -51 -48 -30 7 5 13 -6 7 -33 -19
l-42 -40 10 34 c5 19 9 35 7 36 -1 2 -29 -21 -62 -49 -53 -46 -57 -48 -34 -17
14 19 36 53 49 75 24 38 4 19 -160 -155 -18 -19 -28 -28 -23 -20 12 18 169
225 199 262 l21 26 51 -44 50 -44 60 82 c101 139 86 128 120 88 l29 -34 34 52
c19 28 37 52 40 52 3 0 38 -47 79 -105z m55 -280 c48 -23 145 -117 170 -165 9
-18 28 -74 42 -124 14 -50 29 -95 34 -100 14 -15 11 -53 -6 -86 -13 -26 -21
-30 -55 -30 -29 0 -40 4 -40 15 0 8 7 15 15 15 26 0 16 20 -44 88 -33 37 -69
78 -80 92 -14 16 -19 19 -15 7 9 -25 -57 -51 -108 -43 -41 7 -118 52 -118 69
0 6 -3 7 -7 4 -3 -4 2 -16 12 -26 15 -18 16 -26 5 -73 -25 -104 -66 -158 -121
-158 -62 0 -79 24 -26 38 30 8 32 11 35 61 2 39 -3 66 -23 109 -33 71 -58 98
-98 106 -18 3 -54 17 -81 31 -38 19 -65 25 -117 25 -52 0 -68 4 -73 16 -8 22
61 90 100 100 16 3 35 13 41 22 11 13 16 14 38 2 22 -12 35 -12 83 -1 31 8
103 14 159 15 56 1 106 6 110 10 14 14 126 1 168 -19z m-372 -257 c44 -67 45
-84 6 -124 -18 -18 -41 -36 -51 -40 -13 -4 -18 -15 -18 -40 0 -41 -20 -45 -44
-9 -28 43 -21 96 20 144 31 36 35 46 30 76 -10 51 22 47 57 -7z m328 -155
c-51 -79 -71 -93 -136 -93 -56 0 -61 23 -10 44 32 14 35 19 35 55 0 64 3 67
83 67 l73 0 -45 -73z m-676 -109 c84 -25 251 -28 509 -9 278 20 405 17 490
-14 33 -11 64 -25 69 -30 5 -5 -10 -3 -33 5 -75 26 -185 27 -453 4 -214 -18
-275 -20 -360 -11 -105 11 -191 30 -249 55 -44 19 -34 19 27 0z m-221 -296
c32 -92 47 -114 70 -105 25 10 23 162 -1 176 -14 8 -3 10 45 11 49 0 66 -4 82
-20 26 -26 25 -45 -1 -71 l-21 -21 31 -44 c25 -36 28 -44 13 -44 -24 0 -36 10
-57 48 -11 17 -25 32 -32 32 -20 0 -16 -57 5 -69 12 -8 -7 -10 -72 -11 -77 0
-87 2 -76 15 7 8 10 22 6 30 -9 24 -80 16 -84 -9 -2 -10 2 -22 10 -27 8 -6 0
-9 -24 -9 l-37 0 18 33 c10 17 29 62 42 100 31 92 47 89 83 -15z m398 57 c4
-17 1 -25 -8 -25 -8 0 -14 7 -14 15 0 8 -9 15 -20 15 -18 0 -20 -7 -20 -80 0
-65 3 -81 18 -89 13 -8 4 -10 -38 -10 -42 0 -51 2 -37 10 14 8 17 24 17 89 0
73 -2 80 -20 80 -11 0 -20 -7 -20 -15 0 -8 -4 -15 -10 -15 -5 0 -10 11 -10 25
0 25 1 25 79 25 76 0 79 -1 83 -25z m84 9 c-12 -11 -16 -35 -16 -84 0 -49 4
-73 16 -84 14 -15 11 -16 -33 -16 -37 1 -44 3 -30 11 14 8 17 24 17 89 0 65
-3 81 -17 89 -14 8 -7 10 30 11 44 0 47 -1 33 -16z m168 10 c19 -7 21 -30 5
-40 -7 -4 -16 1 -21 10 -11 19 -49 21 -66 4 -18 -18 -15 -113 4 -132 18 -19
55 -21 72 -4 17 17 28 2 12 -17 -20 -25 -87 -19 -115 10 -20 19 -25 34 -25 75
0 41 5 56 25 75 24 25 73 33 109 19z m167 -15 c15 -15 19 -28 14 -47 -9 -38
-21 -49 -60 -56 -29 -6 -35 -11 -35 -32 0 -16 8 -28 23 -34 17 -7 10 -9 -33
-9 -42 0 -51 2 -37 10 14 8 17 24 17 89 0 65 -3 81 -17 89 -14 8 -3 10 45 11
50 0 66 -4 83 -21z m190 -5 c19 -20 24 -37 24 -74 0 -64 -31 -100 -87 -100
-58 0 -88 34 -88 100 0 41 5 56 25 75 34 35 93 34 126 -1z m127 15 c-15 -8
-18 -24 -18 -89 l0 -80 35 0 c28 0 35 4 35 20 0 11 5 20 10 20 6 0 10 -11 10
-25 0 -14 4 -25 10 -25 12 0 31 38 60 123 32 92 48 89 84 -15 32 -92 47 -114
70 -105 25 10 23 162 -1 176 -14 8 -3 10 43 11 35 0 68 -6 78 -13 24 -17 24
-67 0 -84 -17 -12 -16 -15 14 -58 l32 -45 -25 0 c-18 0 -30 10 -47 40 -13 22
-29 40 -35 40 -20 0 -16 -57 5 -69 12 -8 -7 -10 -72 -11 -77 0 -87 2 -76 15 7
8 10 22 6 30 -9 24 -80 16 -84 -9 -2 -10 2 -22 10 -27 7 -5 -36 -9 -106 -9
-93 0 -117 3 -108 12 7 7 12 42 12 88 0 46 -5 81 -12 88 -9 9 -1 12 38 12 38
-1 45 -3 32 -11z m-918 -364 c0 -8 7 -15 16 -15 13 0 15 -7 11 -29 -4 -19 -2
-32 6 -35 7 -3 3 -4 -8 -3 -16 2 -19 9 -17 32 2 23 0 26 -8 15 -5 -8 -10 -23
-10 -32 0 -10 -4 -18 -10 -18 -5 0 -9 22 -7 50 1 32 7 50 15 50 6 0 12 -7 12
-15z m-50 -6 c0 -6 -6 -9 -14 -6 -16 6 -33 -44 -21 -63 4 -6 -5 -10 -22 -10
-15 0 -23 4 -17 8 6 4 15 22 19 39 5 28 4 32 -9 27 -9 -3 -16 -1 -16 5 0 6 17
11 40 11 23 0 40 -5 40 -11z m325 -9 c0 -8 -10 -19 -23 -25 -15 -6 -21 -16
-18 -27 3 -14 -2 -18 -22 -18 -17 0 -22 3 -15 8 7 4 14 25 15 45 3 36 5 38 33
35 19 -2 30 -9 30 -18z m259 -20 c-9 -16 -23 -30 -32 -31 -12 0 -10 -3 6 -10
26 -10 25 -32 -2 -37 -29 -6 -51 7 -38 20 7 7 12 25 12 40 0 20 7 31 23 38 40
16 47 12 31 -20z m-414 4 c0 -9 -9 -18 -20 -21 -25 -7 -26 -20 -2 -27 10 -3 7
-4 -8 -3 -28 2 -38 30 -20 52 17 20 50 19 50 -1z m235 6 c-4 -6 -11 -8 -16 -5
-5 4 -12 -7 -15 -24 -9 -42 -25 -39 -21 4 2 31 5 35 30 35 17 0 26 -4 22 -10z
m89 -6 c9 -25 -12 -56 -37 -52 -25 3 -34 32 -17 53 16 20 46 19 54 -1z m176 6
c0 -5 -6 -10 -14 -10 -8 0 -17 -11 -20 -25 -9 -37 -23 -30 -22 10 1 31 4 35
29 35 15 0 27 -4 27 -10z m85 -25 c0 -32 -3 -35 -28 -35 -15 0 -30 6 -33 14
-9 23 15 56 39 56 18 0 22 -6 22 -35z m129 -3 c1 -21 -4 -32 -13 -32 -9 0 -12
9 -9 30 3 17 3 30 1 30 -2 0 -9 -13 -14 -30 -15 -41 -32 -39 -24 3 5 24 4 28
-4 17 -6 -8 -11 -23 -11 -32 0 -10 -5 -18 -10 -18 -6 0 -10 16 -8 35 2 36 2
36 47 33 42 -3 44 -4 45 -36z m133 3 c-1 -22 -7 -35 -16 -35 -10 0 -12 8 -7
30 3 17 3 30 0 30 -3 0 -10 -13 -15 -30 -14 -40 -27 -38 -22 3 3 24 2 29 -6
17 -6 -8 -11 -23 -11 -32 0 -10 -5 -18 -10 -18 -6 0 -10 16 -8 35 2 35 2 35
49 35 l48 0 -2 -35z m93 19 c0 -9 -9 -18 -20 -21 -25 -7 -26 -20 -2 -27 10 -3
7 -4 -8 -3 -28 2 -38 30 -20 52 17 20 50 19 50 -1z m80 6 c0 -5 -6 -10 -14
-10 -8 0 -17 -11 -20 -25 -9 -37 -23 -30 -22 10 1 31 4 35 29 35 15 0 27 -4
27 -10z"/>
<path d="M1175 1960 c-3 -5 -2 -10 4 -10 5 0 13 5 16 10 3 6 2 10 -4 10 -5 0
-13 -4 -16 -10z"/>
<path d="M1347 1794 c23 -22 54 -59 68 -84 23 -39 26 -41 20 -15 -8 39 -51 91
-95 117 -35 20 -35 20 7 -18z"/>
<path d="M1441 1644 c0 -11 3 -14 6 -6 3 7 2 16 -1 19 -3 4 -6 -2 -5 -13z"/>
<path d="M1253 1615 c-3 -9 -3 -18 -1 -21 3 -3 8 4 11 16 6 23 -1 27 -10 5z"/>
<path d="M1250 1556 c0 -8 4 -17 9 -20 5 -4 7 3 4 14 -6 23 -13 26 -13 6z"/>
<path d="M1625 1560 c-9 -16 -13 -30 -11 -30 3 0 12 14 21 30 9 17 13 30 11
30 -3 0 -12 -13 -21 -30z"/>
<path d="M900 1191 c0 -33 3 -41 19 -41 48 0 56 73 9 78 -27 3 -28 1 -28 -37z"/>
<path d="M721 1177 c-16 -41 -14 -47 15 -47 22 0 24 3 18 23 -14 48 -22 54
-33 24z"/>
<path d="M1520 1184 c0 -41 2 -45 21 -42 29 4 43 29 35 61 -5 20 -13 27 -31
27 -23 0 -25 -4 -25 -46z"/>
<path d="M1690 1215 c-7 -8 -12 -37 -12 -65 0 -59 14 -80 53 -80 35 0 49 23
49 80 0 23 -5 50 -10 61 -13 23 -62 26 -80 4z"/>
<path d="M2260 1190 c0 -33 3 -40 20 -40 24 0 43 34 35 60 -4 13 -15 20 -31
20 -21 0 -24 -4 -24 -40z"/>
<path d="M2081 1177 c-16 -41 -14 -47 15 -47 22 0 24 3 18 23 -14 48 -22 54
-33 24z"/>
<path d="M1236 855 c-3 -8 -1 -15 4 -15 6 0 10 7 10 15 0 8 -2 15 -4 15 -2 0
-6 -7 -10 -15z"/>
<path d="M1501 834 c0 -11 3 -14 6 -6 3 7 2 16 -1 19 -3 4 -6 -2 -5 -13z"/>
<path d="M1485 780 c-3 -5 1 -10 9 -10 9 0 16 5 16 10 0 6 -4 10 -9 10 -6 0
-13 -4 -16 -10z"/>
<path d="M1406 843 c-9 -10 -7 -43 3 -43 11 0 21 39 11 45 -4 2 -10 2 -14 -2z"/>
<path d="M1666 834 c-9 -23 -7 -36 3 -30 12 8 21 46 11 46 -4 0 -11 -7 -14
-16z"/>
<path d="M2025 840 c-3 -5 -1 -10 4 -10 6 0 11 5 11 10 0 6 -2 10 -4 10 -3 0
-8 -4 -11 -10z"/>
</g>
</svg>
